# xmcd CD database file
#
# Track frame offsets:
#	150
#	21372
#	39285
#	57155
#	75280
#	93525
#	108405
#	123555
#	142197
#	161120
#
# Disc length: 2439 seconds
#
# Revision: 0
# Processed by: cddbd v1.5.1PL0 Copyright (c) Steve Scherf et al.
# Submitted via: CDex 1.51
#
DISCID=8109850a
DTITLE=水越けいこ - MOON FLOWER Miss KEIKO MIZUKOSHI
DYEAR=1900
DGENRE=JPop
TTITLE0=My pure love
TTITLE1=Cryin'in the rain
TTITLE2=nice boy
TTITLE3=さよならのテーブル
TTITLE4=夕顔
TTITLE5=私の60's
TTITLE6=ショーガール
TTITLE7=夜にふりむいて
TTITLE8=remember
TTITLE9=好きでいさせて
EXTD=
EXTT0=
EXTT1=
EXTT2=
EXTT3=
EXTT4=
EXTT5=
EXTT6=
EXTT7=
EXTT8=
EXTT9=
PLAYORDER=
